<svg xmlns="http://www.w3.org/2000/svg" viewBox="0 0 1200 850" width="100%" height="100%">
  <!-- Background White Canvas -->
  <rect width="1200" height="850" fill="#FFFFFF" />

  <!-- BROWSER WINDOW FRAME -->
  <rect x="20" y="20" width="1160" height="810" rx="10" fill="#FFFFFF" stroke="#222222" stroke-width="3" />
  
  <!-- Browser Title Bar -->
  <rect x="20" y="20" width="1160" height="35" rx="10" fill="#E5E7EB" stroke="#222222" stroke-width="2" />
  <text x="600" y="43" font-family="Arial, sans-serif" font-size="14" font-weight="bold" fill="#222222" text-anchor="middle">PhishGuard - Dashboard Monitoring (Wireframe)</text>
  <circle cx="45" cy="37" r="6" fill="#EF4444" stroke="#222222" stroke-width="1.5" />
  <circle cx="65" cy="37" r="6" fill="#F59E0B" stroke="#222222" stroke-width="1.5" />
  <circle cx="85" cy="37" r="6" fill="#10B981" stroke="#222222" stroke-width="1.5" />

  <!-- Address Bar Bar -->
  <rect x="20" y="55" width="1160" height="40" fill="#F3F4F6" stroke="#222222" stroke-width="2" />
  <rect x="35" y="62" width="26" height="26" rx="4" fill="#FFFFFF" stroke="#222222" stroke-width="1.5" />
  <text x="43" y="80" font-family="Arial, sans-serif" font-size="14" font-weight="bold" fill="#222222">←</text>
  <rect x="68" y="62" width="26" height="26" rx="4" fill="#FFFFFF" stroke="#222222" stroke-width="1.5" />
  <text x="76" y="80" font-family="Arial, sans-serif" font-size="14" font-weight="bold" fill="#222222">→</text>
  <rect x="101" y="62" width="26" height="26" rx="4" fill="#FFFFFF" stroke="#222222" stroke-width="1.5" />
  <text x="108" y="80" font-family="Arial, sans-serif" font-size="14" font-weight="bold" fill="#222222">↻</text>
  
  <rect x="140" y="62" width="1020" height="26" rx="13" fill="#FFFFFF" stroke="#222222" stroke-width="1.5" />
  <text x="160" y="79" font-family="monospace" font-size="12" fill="#333333">http://localhost:5000/</text>

  <!-- Navbar Area -->
  <rect x="20" y="95" width="1160" height="60" fill="#F9FAFB" stroke="#222222" stroke-width="2" />
  
  <!-- Logo Box [X] -->
  <rect x="50" y="107" width="36" height="36" rx="6" fill="#E5E7EB" stroke="#222222" stroke-width="2" />
  <line x1="50" y1="107" x2="86" y2="143" stroke="#222222" stroke-width="2" />
  <line x1="86" y1="107" x2="50" y2="143" stroke="#222222" stroke-width="2" />
  <text x="95" y="130" font-family="Arial, sans-serif" font-size="18" font-weight="bold" fill="#222222">PhishGuard</text>
  
  <!-- Navigation Tabs -->
  <rect x="750" y="107" width="400" height="36" rx="8" fill="#E5E7EB" stroke="#222222" stroke-width="2" />
  <rect x="754" y="111" width="95" height="28" rx="6" fill="#FFFFFF" stroke="#222222" stroke-width="1.5" />
  <text x="767" y="129" font-family="Arial, sans-serif" font-size="11" fill="#222222">URL Scanner</text>
  
  <rect x="855" y="111" width="85" height="28" rx="6" fill="#222222" />
  <text x="870" y="130" font-family="Arial, sans-serif" font-size="11" font-weight="bold" fill="#FFFFFF">Dashboard</text>

  <rect x="945" y="111" width="90" height="28" rx="6" fill="#FFFFFF" stroke="#222222" stroke-width="1.5" />
  <text x="955" y="129" font-family="Arial, sans-serif" font-size="11" fill="#222222">Blacklist (5)</text>

  <rect x="1040" y="111" width="100" height="28" rx="6" fill="#FFFFFF" stroke="#222222" stroke-width="1.5" />
  <text x="1052" y="129" font-family="Arial, sans-serif" font-size="11" fill="#222222">Log Riwayat</text>

  <!-- Title Section -->
  <text x="100" y="185" font-family="Arial, sans-serif" font-size="24" font-weight="bold" fill="#222222">Dashboard Monitoring Sistem</text>
  <text x="100" y="208" font-family="Arial, sans-serif" font-size="12" fill="#6B7280">Ringkasan aktivitas deteksi dan pertahanan keamanan sistem PhishGuard secara real-time.</text>

  <rect x="990" y="170" width="110" height="35" rx="6" fill="#E5E7EB" stroke="#222222" stroke-width="1.5" />
  <text x="1005" y="192" font-family="Arial, sans-serif" font-size="11" font-weight="bold" fill="#222222">🔄 Refresh Stats</text>

  <!-- 4 Stat Cards Grid -->
  <!-- Card 1 -->
  <rect x="100" y="230" width="230" height="110" rx="10" fill="#F9FAFB" stroke="#222222" stroke-width="2" />
  <text x="120" y="258" font-family="Arial, sans-serif" font-size="10" font-weight="bold" fill="#6B7280">TOTAL SCAN URL</text>
  <rect x="290" y="245" width="24" height="24" rx="4" fill="#E5E7EB" stroke="#222222" />
  <text x="298" y="261" font-family="Arial, sans-serif" font-size="12">🌐</text>
  <text x="120" y="298" font-family="Arial, sans-serif" font-size="28" font-weight="bold" fill="#222222">10</text>
  <text x="120" y="322" font-family="Arial, sans-serif" font-size="10" fill="#6B7280">Seluruh transaksi pemindaian</text>

  <!-- Card 2 -->
  <rect x="355" y="230" width="230" height="110" rx="10" fill="#F9FAFB" stroke="#222222" stroke-width="2" />
  <text x="375" y="258" font-family="Arial, sans-serif" font-size="10" font-weight="bold" fill="#6B7280">PHISHING TERDETEKSI</text>
  <rect x="545" y="245" width="24" height="24" rx="4" fill="#E5E7EB" stroke="#222222" />
  <text x="552" y="261" font-family="Arial, sans-serif" font-size="12">⚠️</text>
  <text x="375" y="298" font-family="Arial, sans-serif" font-size="28" font-weight="bold" fill="#222222">7</text>
  <text x="375" y="322" font-family="Arial, sans-serif" font-size="10" fill="#6B7280">Ancaman berhasil dicegat</text>

  <!-- Card 3 -->
  <rect x="610" y="230" width="230" height="110" rx="10" fill="#F9FAFB" stroke="#222222" stroke-width="2" />
  <text x="630" y="258" font-family="Arial, sans-serif" font-size="10" font-weight="bold" fill="#6B7280">URL AMAN (LEGITIMATE)</text>
  <rect x="800" y="245" width="24" height="24" rx="4" fill="#E5E7EB" stroke="#222222" />
  <text x="808" y="261" font-family="Arial, sans-serif" font-size="12">✓</text>
  <text x="630" y="298" font-family="Arial, sans-serif" font-size="28" font-weight="bold" fill="#222222">3</text>
  <text x="630" y="322" font-family="Arial, sans-serif" font-size="10" fill="#6B7280">Tautan diverifikasi sah</text>

  <!-- Card 4 -->
  <rect x="865" y="230" width="235" height="110" rx="10" fill="#F9FAFB" stroke="#222222" stroke-width="2" />
  <text x="885" y="258" font-family="Arial, sans-serif" font-size="10" font-weight="bold" fill="#6B7280">ZERO-DAY BLACKLISTED</text>
  <rect x="1055" y="245" width="24" height="24" rx="4" fill="#E5E7EB" stroke="#222222" />
  <text x="1062" y="261" font-family="Arial, sans-serif" font-size="12">🛡️</text>
  <text x="885" y="298" font-family="Arial, sans-serif" font-size="28" font-weight="bold" fill="#222222">4</text>
  <text x="885" y="322" font-family="Arial, sans-serif" font-size="10" fill="#6B7280">URL Phishing di-auto-blacklist</text>

  <!-- Auto-Learning Container Box Wireframe -->
  <rect x="100" y="365" width="1000" height="425" rx="12" fill="#FFFFFF" stroke="#222222" stroke-width="2.5" />
  
  <rect x="130" y="390" width="410" height="22" rx="4" fill="#E5E7EB" stroke="#222222" stroke-width="1.5" />
  <text x="140" y="405" font-family="Arial, sans-serif" font-size="10" font-weight="bold" fill="#222222">🤖 FITUR SIMULASI PEMBELAJARAN MANDIRI (AUTO-LEARNING IDLE ENGINE)</text>

  <text x="130" y="438" font-family="Arial, sans-serif" font-size="16" font-weight="bold" fill="#222222">Simulasi Generasi &amp; Analisis Sintetis Link Phishing Zero-Day</text>
  <text x="130" y="458" font-family="Arial, sans-serif" font-size="11" fill="#6B7280">Fitur ini mensimulasikan sistem saat idle, di mana model GA+RF memprediksi sintesis URL zero-day tanpa crawling.</text>

  <rect x="880" y="425" width="190" height="42" rx="8" fill="#222222" stroke="#222222" stroke-width="2" />
  <text x="910" y="451" font-family="Arial, sans-serif" font-size="12" font-weight="bold" fill="#FFFFFF">✨ Jalankan Auto-Learning</text>

  <!-- Log Box Wireframe -->
  <rect x="130" y="485" width="940" height="280" rx="8" fill="#F9FAFB" stroke="#222222" stroke-width="2" />
  <text x="150" y="510" font-family="Arial, sans-serif" font-size="11" font-weight="bold" fill="#222222">Log Hasil Auto-Learning Sintetis:</text>
  <text x="1000" y="510" font-family="Arial, sans-serif" font-size="10" fill="#6B7280">3 Pola Diproses</text>

  <!-- Log Row 1 -->
  <rect x="150" y="525" width="900" height="65" rx="6" fill="#FFFFFF" stroke="#222222" stroke-width="1.5" />
  <text x="170" y="552" font-family="monospace" font-size="11" font-weight="bold" fill="#222222">http://192.168.48.136/login-verify-account.php?ref=account_verification_secure-bank-verification-151%20obf</text>
  <text x="170" y="572" font-family="Arial, sans-serif" font-size="10" fill="#6B7280">Confidence GA+RF: <tspan font-weight="bold" fill="#222222">100.0%</tspan></text>
  <rect x="880" y="542" width="150" height="26" rx="4" fill="#E5E7EB" stroke="#222222" stroke-width="1.5" />
  <text x="890" y="559" font-family="Arial, sans-serif" font-size="10" font-weight="bold" fill="#222222">✓ Masuk tbl_blacklist</text>

  <!-- Log Row 2 -->
  <rect x="150" y="600" width="900" height="65" rx="6" fill="#FFFFFF" stroke="#222222" stroke-width="1.5" />
  <text x="170" y="627" font-family="monospace" font-size="11" font-weight="bold" fill="#222222">http://192.168.157.152/login-verify-account.php?ref=account_verification_paypal-update-account-382%20obf</text>
  <text x="170" y="647" font-family="Arial, sans-serif" font-size="10" fill="#6B7280">Confidence GA+RF: <tspan font-weight="bold" fill="#222222">100.0%</tspan></text>
  <rect x="880" y="617" width="150" height="26" rx="4" fill="#E5E7EB" stroke="#222222" stroke-width="1.5" />
  <text x="890" y="634" font-family="Arial, sans-serif" font-size="10" font-weight="bold" fill="#222222">✓ Masuk tbl_blacklist</text>

  <!-- Log Row 3 -->
  <rect x="150" y="675" width="900" height="65" rx="6" fill="#FFFFFF" stroke="#222222" stroke-width="1.5" />
  <text x="170" y="702" font-family="monospace" font-size="11" font-weight="bold" fill="#222222">http://192.168.45.112/confirm-user?ref=account_verification_paypal-update-account-462%20obf</text>
  <text x="170" y="722" font-family="Arial, sans-serif" font-size="10" fill="#6B7280">Confidence GA+RF: <tspan font-weight="bold" fill="#222222">100.0%</tspan></text>
  <rect x="880" y="692" width="150" height="26" rx="4" fill="#E5E7EB" stroke="#222222" stroke-width="1.5" />
  <text x="890" y="709" font-family="Arial, sans-serif" font-size="10" font-weight="bold" fill="#222222">✓ Masuk tbl_blacklist</text>

  <text x="600" y="810" font-family="Arial, sans-serif" font-size="11" fill="#6B7280" text-anchor="middle">Wireframe Halaman 2: Dashboard Monitoring (Bab 4 Skripsi - Hafiz Alfarisyi)</text>
</svg>
